<svg width="0" height="0" class="hidden">
  <symbol viewBox="0 0 14 15" fill="none" xmlns="http://www.w3.org/2000/svg" id="delete">
    <path d="M2.8335 15C2.37516 15 1.98294 14.8369 1.65683 14.5108C1.33072 14.1847 1.16738 13.7922 1.16683 13.3333V2.5H0.333496V0.833333H4.50016V0H9.50016V0.833333H13.6668V2.5H12.8335V13.3333C12.8335 13.7917 12.6704 14.1842 12.3443 14.5108C12.0182 14.8375 11.6257 15.0006 11.1668 15H2.8335ZM11.1668 2.5H2.8335V13.3333H11.1668V2.5ZM4.50016 11.6667H6.16683V4.16667H4.50016V11.6667ZM7.8335 11.6667H9.50016V4.16667H7.8335V11.6667Z" fill="black"/>
  </symbol>

  <symbol viewBox="0 0 21 20" fill="none" xmlns="http://www.w3.org/2000/svg" id="edit">
    <path d="M0 19.664C0 19.7468 0.032924 19.8263 0.0915291 19.8849C0.150134 19.9435 0.22962 19.9765 0.3125 19.9765H19.7569C19.7981 19.9764 19.839 19.9683 19.8771 19.9524C19.9151 19.9365 19.9497 19.9133 19.9787 19.884L19.9806 19.8827L19.985 19.8752C20.0162 19.8401 20.039 19.7985 20.0519 19.7533C20.056 19.7392 20.059 19.7248 20.0606 19.7102C20.0631 19.6946 20.07 19.6808 20.07 19.6646C20.07 19.6396 20.0613 19.6177 20.0556 19.5946C20.0538 19.5858 20.0575 19.5771 20.0544 19.5683L18.0794 13.4965C18.0641 13.4496 18.038 13.4069 18.0031 13.3721L7.305 2.67333C7.29375 2.65583 7.28563 2.63708 7.27063 2.62146L4.93375 0.284581C4.75098 0.102339 4.50341 0 4.24531 0C3.98721 0 3.73964 0.102339 3.55687 0.284581L0.285 3.55646C0.10125 3.74021 0 3.98458 0 4.24458C0 4.50458 0.10125 4.74958 0.285 4.93333L2.57 7.21833C2.58125 7.23521 2.58875 7.25458 2.60375 7.26958L13.285 18.0227C13.3218 18.0598 13.3674 18.0871 13.4175 18.1021L17.6131 19.3521H0.3125C0.229728 19.3521 0.150337 19.3849 0.0917498 19.4434C0.0331626 19.5019 0.000165544 19.5812 0 19.664ZM3.97625 6.34021L13.7806 16.019L13.42 17.2702L3.26688 7.04958L3.97625 6.34021ZM14.26 15.6146L4.4175 5.89896L5.94063 4.37583L15.695 14.1558V15.6146H14.26ZM16.0844 13.6615L6.3825 3.93396L7.03188 3.28458L17.1637 13.4165L16.0844 13.6615ZM14.3675 16.2396H16.0075C16.0904 16.2396 16.1699 16.2067 16.2285 16.1481C16.2871 16.0894 16.32 16.01 16.32 15.9271V14.249L17.5744 13.964L19.2762 19.1952L13.9713 17.6146L14.3675 16.2396ZM0.625 4.24458C0.625 4.15146 0.66125 4.06458 0.726875 3.99833L3.99875 0.726456C4.06431 0.661382 4.15294 0.624865 4.24531 0.624865C4.33769 0.624865 4.42631 0.661382 4.49187 0.726456L6.59938 2.83396L2.835 6.59833L0.7275 4.49083C0.69487 4.45868 0.668994 4.42034 0.651392 4.37805C0.63379 4.33577 0.624817 4.29039 0.625 4.24458Z" fill="black"/>
</symbol>

</svg>